<!-- public/google-icon.svg -->
<svg width="18" height="18" viewBox="0 0 48 48" xmlns="http://www.w3.org/2000/svg">
  <path fill="#EA4335" d="M24 9.5c3.14 0 5.96 1.14 8.2 3.02l6.13-6.13C34.05 2.2 29.26 0 24 0 14.63 0 6.64 5.5 2.75 13.48l7.19 5.59C12.02 13.39 17.54 9.5 24 9.5z"/>
  <path fill="#34A853" d="M46.07 24.59c0-1.74-.15-3.41-.44-5.03H24v9.51h12.44c-.54 2.91-2.17 5.38-4.62 7.02l7.1 5.53C43.84 37.09 46.07 31.24 46.07 24.59z"/>
  <path fill="#FBBC05" d="M10.6 28.68c-.47-1.4-.73-2.89-.73-4.43s.26-3.03.73-4.43l-7.2-5.6A23.91 23.91 0 000 24c0 3.93.94 7.65 2.6 10.96l7.21-6.28z"/>
  <path fill="#4285F4" d="M24 48c6.26 0 11.5-2.07 15.34-5.63l-7.11-5.53c-2.01 1.35-4.58 2.15-8.23 2.15-6.45 0-11.97-3.89-14.06-9.34L2.6 34.96C6.49 42.95 14.48 48 24 48z"/>
  <path fill="none" d="M0 0h48v48H0z"/>
</svg>
